<svg width="24" height="24" viewBox="0 0 24 24" fill="none" xmlns="http://www.w3.org/2000/svg">
<g clip-path="url(#clip0_1_38)">
<path d="M21.3333 8.81333V20H2.66666V5.33333H4.66666V4H2.5C2.34416 4.0026 2.19035 4.03588 2.04738 4.09794C1.9044 4.15999 1.77505 4.24961 1.66671 4.36166C1.55837 4.47371 1.47316 4.60601 1.41596 4.751C1.35876 4.89599 1.33068 5.05083 1.33333 5.20667V20.1267C1.33068 20.2825 1.35876 20.4373 1.41596 20.5823C1.47316 20.7273 1.55837 20.8596 1.66671 20.9717C1.77505 21.0837 1.9044 21.1733 2.04738 21.2354C2.19035 21.2974 2.34416 21.3307 2.5 21.3333H21.5C21.6558 21.3307 21.8096 21.2974 21.9526 21.2354C22.0956 21.1733 22.225 21.0837 22.3333 20.9717C22.4416 20.8596 22.5268 20.7273 22.584 20.5823C22.6412 20.4373 22.6693 20.2825 22.6667 20.1267V8.22667C22.2535 8.48669 21.8042 8.68437 21.3333 8.81333Z" fill="#1E1E1E"/>
<path d="M5.33334 9.33334H6.66668V10.6667H5.33334V9.33334Z" fill="#1E1E1E"/>
<path d="M9.33334 9.33334H10.6667V10.6667H9.33334V9.33334Z" fill="#1E1E1E"/>
<path d="M13.3333 9.33334H14.6667V10.6667H13.3333V9.33334Z" fill="#1E1E1E"/>
<path d="M17.3333 9.33334H18.6667V10.6667H17.3333V9.33334Z" fill="#1E1E1E"/>
<path d="M5.33334 12.6667H6.66668V14H5.33334V12.6667Z" fill="#1E1E1E"/>
<path d="M9.33334 12.6667H10.6667V14H9.33334V12.6667Z" fill="#1E1E1E"/>
<path d="M13.3333 12.6667H14.6667V14H13.3333V12.6667Z" fill="#1E1E1E"/>
<path d="M17.3333 12.6667H18.6667V14H17.3333V12.6667Z" fill="#1E1E1E"/>
<path d="M5.33334 16H6.66668V17.3333H5.33334V16Z" fill="#1E1E1E"/>
<path d="M9.33334 16H10.6667V17.3333H9.33334V16Z" fill="#1E1E1E"/>
<path d="M13.3333 16H14.6667V17.3333H13.3333V16Z" fill="#1E1E1E"/>
<path d="M17.3333 16H18.6667V17.3333H17.3333V16Z" fill="#1E1E1E"/>
<path d="M6.66667 6.66668C6.84348 6.66668 7.01305 6.59644 7.13807 6.47141C7.2631 6.34639 7.33333 6.17682 7.33333 6.00001V2.00001C7.33333 1.8232 7.2631 1.65363 7.13807 1.52861C7.01305 1.40358 6.84348 1.33334 6.66667 1.33334C6.48986 1.33334 6.32029 1.40358 6.19526 1.52861C6.07024 1.65363 6 1.8232 6 2.00001V6.00001C6 6.17682 6.07024 6.34639 6.19526 6.47141C6.32029 6.59644 6.48986 6.66668 6.66667 6.66668Z" fill="#1E1E1E"/>
<path d="M15 4H8.66666V5.33333H15.1867C15.0645 4.89935 15.0017 4.45083 15 4Z" fill="#1E1E1E"/>
<path d="M20 7.33332C21.8409 7.33332 23.3333 5.84094 23.3333 3.99999C23.3333 2.15904 21.8409 0.666656 20 0.666656C18.159 0.666656 16.6667 2.15904 16.6667 3.99999C16.6667 5.84094 18.159 7.33332 20 7.33332Z" fill="#1E1E1E"/>
</g>
<defs>
<clipPath id="clip0_1_38">
<rect width="24" height="24" fill="white"/>
</clipPath>
</defs>
</svg>
