<svg width="13" height="16" viewBox="0 0 13 16" fill="none" xmlns="http://www.w3.org/2000/svg">
<path d="M6.16155 6.4C4.35432 6.37203 2.97379 4.91923 2.96156 3.2C2.99141 1.40889 4.45538 0.01256 6.16155 0C7.97038 0.0684 9.34869 1.45293 9.36156 3.2C9.32599 4.99252 7.86947 6.38787 6.16155 6.4ZM8.74879 7.06384C11.0233 7.09039 12.1767 9.08557 12.1872 11.0808V16H9.95739L9.9574 11.6766C9.90311 11.3777 9.70067 11.2764 9.51521 11.3057C9.34159 11.3331 9.18283 11.475 9.17441 11.6766V16H2.97881V11.6766C2.93139 11.3922 2.75044 11.2828 2.5744 11.2938C2.38589 11.3057 2.20303 11.4556 2.19583 11.6766V16H9.435e-05V11.0808C-0.0129723 8.95443 1.33211 7.0796 3.45525 7.06384H8.74879Z" fill="#1E1E1E"/>
</svg>
