<svg width="19" height="24" viewBox="0 0 19 24" fill="none" xmlns="http://www.w3.org/2000/svg">
<path d="M9.24232 9.6C6.53148 9.55804 4.46068 7.37884 4.44234 4.8C4.48712 2.11334 6.68306 0.01884 9.24232 0C11.9556 0.1026 14.023 2.1794 14.0423 4.8C13.989 7.48878 11.8042 9.5818 9.24232 9.6ZM13.1232 10.5958C16.535 10.6356 18.2651 13.6284 18.2808 16.6211V24H14.9361L14.9361 17.5149C14.8547 17.0666 14.551 16.9146 14.2728 16.9585C14.0124 16.9997 13.7742 17.2125 13.7616 17.5149V24H4.46822V17.5149C4.39708 17.0882 4.12566 16.9242 3.8616 16.9407C3.57884 16.9585 3.30454 17.1834 3.29374 17.5149V24H0.000141525V16.6211C-0.0194585 13.4316 1.99816 10.6194 5.18288 10.5958H13.1232Z" fill="black"/>
</svg>
